<svg xmlns="http://www.w3.org/2000/svg" xmlns:xlink="http://www.w3.org/1999/xlink" width="1080" zoomAndPan="magnify" viewBox="0 0 810 809.999993" height="1080" preserveAspectRatio="xMidYMid meet" version="1.0"><defs><clipPath id="6bf2f2d8ed"><path d="M 188 205 L 613 205 L 613 629.671875 L 188 629.671875 Z M 188 205 " clip-rule="nonzero"/></clipPath><clipPath id="d8cd7a9dcb"><path d="M 273 180.421875 L 622.25 180.421875 L 622.25 540 L 273 540 Z M 273 180.421875 " clip-rule="nonzero"/></clipPath></defs><g clip-path="url(#6bf2f2d8ed)"><path fill="#6feb01" d="M 400.09375 205.464844 C 283.1875 205.464844 188 300.617188 188 417.484375 C 188 534.347656 283.1875 629.5 400.09375 629.5 C 517.003906 629.5 612.1875 534.347656 612.1875 417.484375 C 612.1875 366.960938 595.085938 321.777344 566.042969 284.761719 L 546.070312 308.421875 C 571.390625 339.585938 581.300781 374.183594 581.300781 417.480469 C 581.300781 517.632812 500.277344 598.578125 400.09375 598.578125 C 299.90625 598.578125 218.886719 517.632812 218.886719 417.484375 C 218.886719 317.332031 299.90625 236.339844 400.09375 236.339844 C 431.839844 236.339844 455.585938 240.902344 481.507812 255.214844 L 500.480469 230.308594 C 470.128906 213.550781 437.136719 205.464844 400.09375 205.464844 Z M 400.09375 205.464844 " fill-opacity="1" fill-rule="evenodd"/></g><g clip-path="url(#d8cd7a9dcb)"><path fill="#6feb01" d="M 321.597656 389.597656 C 330.148438 389.597656 336.617188 396.613281 341.003906 410.644531 C 349.777344 436.949219 356.027344 450.101562 359.753906 450.101562 C 362.605469 450.101562 365.566406 447.910156 368.636719 443.527344 C 430.257812 344.878906 487.277344 265.082031 539.6875 204.140625 C 553.285156 188.359375 574.886719 180.464844 604.492188 180.464844 C 611.507812 180.464844 616.222656 181.125 618.636719 182.4375 C 621.046875 183.753906 622.253906 185.398438 622.253906 187.371094 C 622.253906 190.441406 618.632812 196.46875 611.398438 205.457031 C 526.75 307.175781 448.242188 414.589844 375.875 527.707031 C 370.828125 535.597656 360.523438 539.546875 344.953125 539.542969 C 329.164062 539.546875 319.84375 538.886719 316.992188 537.570312 C 309.535156 534.285156 300.765625 517.511719 290.675781 487.261719 C 279.273438 453.71875 273.570312 432.675781 273.570312 424.125 C 273.570312 414.917969 281.246094 406.039062 296.597656 397.488281 C 306.027344 392.230469 314.359375 389.597656 321.597656 389.597656 " fill-opacity="1" fill-rule="nonzero"/></g></svg>